<svg width="237" height="197" viewBox="0 0 237 197" fill="none" xmlns="http://www.w3.org/2000/svg">
<g clip-path="url(#clip0)">
<path opacity="0.1" d="M231.238 114.201C231.238 114.35 231.238 114.5 231.238 114.647C231.212 117.228 231.062 119.802 230.787 122.37C230.788 122.385 230.788 122.401 230.787 122.416C230.765 122.63 230.741 122.841 230.717 123.054C230.676 123.415 230.632 123.773 230.584 124.134C230.022 128.523 229.092 132.856 227.804 137.084V137.084C226.079 142.798 223.639 148.262 220.546 153.344C219.595 154.898 218.581 156.402 217.506 157.856C216.932 158.626 216.346 159.379 215.741 160.12C215.316 160.638 214.884 161.149 214.443 161.651L214.168 161.96C211.851 164.549 209.353 166.964 206.694 169.187C202.353 172.847 197.68 176.031 192.932 178.985C192.662 179.154 192.39 179.321 192.117 179.476C192.099 179.49 192.078 179.502 192.057 179.512C185.605 183.482 178.913 187.063 172.02 189.931C164.472 193.079 156.679 195.368 148.684 196.368C137.539 197.762 126.259 196.628 115.182 194.681C105.969 193.07 96.8676 190.858 87.9343 188.057L86.4635 187.588C85.7015 187.341 84.9404 187.09 84.18 186.833C79.5874 185.287 75.0462 183.57 70.5564 181.681C59.2802 176.956 48.5078 171.071 38.4071 164.119C37.1211 163.239 35.8536 162.339 34.6046 161.42C32.8588 160.141 31.134 158.825 29.43 157.47L28.3787 156.641C23.9195 153.089 19.7415 149.185 15.8836 144.966C10.6946 139.221 6.26025 132.74 3.34504 125.341C2.8853 124.178 2.46413 122.993 2.08154 121.786L2.04538 121.666C1.85247 121.053 1.67404 120.439 1.51008 119.801C1.26895 118.889 1.05756 117.965 0.875916 117.029C0.837336 116.85 0.803579 116.671 0.772232 116.49C0.195915 113.341 -0.0586235 110.141 0.0126861 106.939C0.0729929 104.134 0.395954 101.341 0.977189 98.5983V98.5983C1.5721 95.755 2.48886 92.9914 3.70914 90.3629V90.3629C4.81191 87.9993 6.21698 85.7944 7.88785 83.8055V83.8055C9.06195 82.4149 10.3824 81.1596 11.8254 80.0619C14.4416 78.0797 17.3424 76.6985 20.3492 75.6068C21.7622 75.0917 23.1945 74.6403 24.634 74.2208C25.654 73.9215 26.6788 73.6369 27.6987 73.3572L30.708 72.5305C32.637 71.9957 34.566 71.4462 36.4661 70.8525C41.6454 69.2432 46.7211 67.2954 51.4159 64.3908C52.1585 63.932 52.9157 63.4291 53.6728 62.8894C54.6373 62.2074 55.5873 61.4665 56.5277 60.6668C57.4778 59.8572 58.4085 58.9912 59.2958 58.0737C59.4333 57.9315 59.5683 57.7892 59.7033 57.6444C60.4267 56.8692 61.1284 56.0572 61.7794 55.2133C62.0977 54.8012 62.4064 54.3817 62.7005 53.9548C63.108 53.3636 63.4938 52.7626 63.8507 52.1443C65.6399 49.0533 66.7442 45.6433 66.614 42.0494C66.595 41.4572 66.5426 40.8667 66.4573 40.2806C66.1438 38.1144 65.8424 35.9998 65.6206 33.9317C64.6898 25.3774 65.0829 17.6203 71.3931 10.3319C79.2393 1.27217 91.5536 -0.575098 102.764 0.148599C135.173 2.23383 164.677 21.0597 190.606 43.4723C192.848 45.4087 195.063 47.3712 197.251 49.36C197.802 49.8604 198.355 50.3641 198.908 50.8711C203.007 54.627 207.043 58.5227 210.802 62.6956C211.106 63.0341 211.41 63.3727 211.709 63.7137C211.892 63.9247 212.078 64.1332 212.259 64.3466C213.431 65.6959 214.568 67.0778 215.671 68.4925C218.625 72.2482 221.233 76.272 223.464 80.5132C226.879 87.1693 229.191 94.3531 230.307 101.775V101.775C230.727 104.471 231.003 107.187 231.134 109.912C231.175 110.715 231.202 111.519 231.216 112.322C231.216 112.579 231.216 112.834 231.216 113.092C231.24 113.465 231.24 113.828 231.238 114.201Z" fill="#FFB201"/>
<path d="M94.9986 110.085L91.1406 179.95L94.9986 180.002L98.1333 109.104L94.9986 110.085Z" fill="#3F3D56"/>
<path d="M80.7722 145.483H33.0293V156.031H80.7722V145.483Z" fill="#6C63FF"/>
<path d="M83.907 154.802V161.426H34.5896C32.8438 160.147 31.119 158.831 29.415 157.476V154.802H83.907Z" fill="#3F3D56"/>
<path d="M93.7544 139.727C93.6193 140.363 93.4433 140.991 93.2576 141.616C92.7103 143.424 92.052 145.208 91.9242 147.087C91.753 149.57 92.4065 152.457 90.7186 154.26C90.2845 154.726 89.7179 155.075 89.3297 155.573C89.2699 155.651 89.2151 155.733 89.1657 155.818C88.8185 156.402 88.7775 157.113 88.7727 157.781C88.7767 159.204 88.8677 160.625 89.0452 162.037C89.6166 166.894 90.7451 171.761 89.2622 176.346C88.9935 177.142 88.6803 177.921 88.3242 178.679C87.6008 180.299 86.8123 181.896 86.576 183.65C86.4024 184.95 86.4555 186.289 86.4458 187.612C85.6839 187.365 84.9227 187.113 84.1624 186.856C79.5697 185.31 75.0285 183.593 70.5388 181.704C70.5508 181.638 70.5629 181.569 70.5725 181.503C70.9173 179.32 70.4447 177.087 69.8709 174.958C68.6652 170.446 66.9581 165.979 65.9477 161.436C65.5409 159.661 65.274 157.857 65.1496 156.039C65.1207 155.632 65.1038 155.222 65.1014 154.812C65.0893 154.277 65.1014 153.743 65.1231 153.203C65.1737 152.126 65.2195 150.848 64.3732 150.193C63.9078 149.837 63.2929 149.776 62.7504 149.56C61.7039 149.145 60.9878 148.184 60.1583 147.413C59.7626 147.023 59.2795 146.736 58.7506 146.578C58.2217 146.42 57.663 146.395 57.1225 146.506C51.702 147.769 47.7186 152.447 42.6743 154.812C42.479 154.905 42.2837 154.994 42.0859 155.077C41.4334 155.32 40.8124 155.643 40.2365 156.039C39.8318 156.325 39.5384 156.746 39.407 157.229C39.2792 157.749 39.3902 158.293 39.4529 158.828C39.5543 159.698 39.5177 160.578 39.3443 161.436C39.279 161.768 39.1928 162.096 39.0863 162.417C38.8934 162.999 38.6354 163.568 38.3895 164.134C37.1035 163.254 35.836 162.355 34.5869 161.436C32.8412 160.157 31.1163 158.84 29.4124 157.486L28.3779 156.64C23.9187 153.087 19.7408 149.184 15.8828 144.965C16.3964 143.493 17.1391 142.124 17.4959 140.615C17.6985 139.749 17.7732 138.849 18.0529 138.008C18.3755 137.135 18.8241 136.317 19.384 135.579C21.4344 132.67 23.9381 130.121 26.7962 128.033C29.7837 125.855 33.2342 124.108 35.9228 121.635C37.0138 120.663 37.9544 119.529 38.7126 118.272C38.7584 118.196 38.8018 118.115 38.8404 118.026C39.0503 117.582 39.1956 117.11 39.272 116.623C39.4649 115.524 39.436 114.317 39.5324 113.262C42.8076 113.839 46.1465 113.941 49.4499 113.566C53.2959 113.127 57.0574 112.04 60.9034 111.619C61.1927 111.584 61.4845 111.557 61.7763 111.533C63.0084 111.432 64.243 111.41 65.4799 111.425C66.5144 111.425 67.5488 111.471 68.5832 111.506L79.9716 111.898C81.2327 111.942 82.5203 111.991 83.6946 112.46C85.0883 113.017 86.2047 114.126 87.0993 115.345C87.2126 115.502 87.3259 115.659 87.432 115.821C88.1681 116.913 88.7584 118.1 89.1874 119.351C89.2332 119.479 89.2766 119.596 89.3176 119.736C89.4261 120.077 89.5202 120.421 89.6046 120.769C89.6697 121.041 89.7276 121.314 89.7806 121.588C90.0458 122.947 90.2026 124.336 90.6221 125.648C90.6511 125.744 90.6824 125.84 90.7162 125.933C91.2201 127.371 92.0568 128.659 92.6886 130.04C93.1441 131.039 93.4917 132.087 93.7254 133.163C94.1977 135.323 94.2076 137.562 93.7544 139.727V139.727Z" fill="#35323E"/>
<path d="M59.138 51.9344C58.1204 51.1101 56.6447 51.7136 55.4536 52.246C54.4549 52.6947 53.4268 53.0726 52.3768 53.3769C52.1619 53.461 51.9289 53.4856 51.7017 53.448C51.2194 53.3303 51.0169 52.7489 50.6576 52.3956C50.0331 51.7848 49.0107 51.9295 48.2053 52.2607C47.4 52.5919 46.6043 53.0702 45.741 52.9966C44.8199 52.9231 44.0194 52.2312 43.0887 52.2092C41.449 52.1699 40.0722 54.2257 38.5217 53.6811C37.5765 53.3499 36.8339 52.0988 35.9031 52.4545C35.1797 52.7342 35.1146 53.7522 34.6782 54.4171C34.1646 55.1923 33.1639 55.4106 32.3079 55.7541C29.6097 56.8384 27.823 59.8975 28.175 62.8267C28.3703 64.4433 29.1395 65.9251 29.6483 67.4681C31.1578 71.955 30.6393 77.016 32.5418 81.3435C32.7829 81.1129 32.918 81.027 33.1519 80.7989C32.5503 82.0682 32.4343 83.5197 32.8263 84.8712C33.0265 85.5507 33.352 86.1837 33.5979 86.8485C33.8534 87.5941 34.0597 88.3563 34.2152 89.13L36.313 98.5454C37.1328 102.225 37.9551 105.905 38.0973 109.673C38.1859 112.123 38.0015 114.576 37.5476 116.984C41.3477 116.343 44.8248 114.629 48.6755 114.651C50.0885 114.651 51.4895 114.896 52.8904 115.092C56.9749 115.674 61.0949 115.958 65.2192 115.944C65.8606 115.981 66.503 115.889 67.1096 115.674C67.6401 115.443 68.0741 115.033 68.5756 114.737C69.557 114.148 70.7458 114.001 71.8766 114.001C77.0343 113.905 82.0039 115.826 87.1278 116.503C89.1509 112.183 89.2714 107.006 87.7186 102.49C87.258 101.148 86.6384 99.8407 86.4551 98.4301C86.3815 97.5629 86.3622 96.6919 86.3972 95.8223C86.3892 93.596 85.9949 91.3886 85.2326 89.3017C84.9336 88.4848 84.5743 87.6531 84.6057 86.7822C84.637 85.9113 85.059 85.0993 85.4737 84.329C86.3152 82.759 87.1616 81.1742 88.3503 79.8495C89.568 78.4806 91.0919 77.438 92.599 76.415L96.3196 73.8735C95.8108 70.6033 95.1549 67.159 93.7926 64.1514C92.4302 61.1438 90.3927 58.379 87.6366 56.62C86.7074 56.0513 85.735 55.5591 84.7286 55.1481C83.3205 54.5446 81.8544 54.0123 80.3281 53.9215C78.592 53.8209 76.8824 54.2944 75.168 54.5888C69.7716 55.5136 63.4204 55.4008 59.138 51.9344Z" fill="#6C63FF"/>
<path d="M99.8212 108.682L98.0513 110.956L94.7142 115.242L90.8562 120.195L89.7783 121.579H87.6878L35.9205 121.64L3.50115 121.677H2.05439C1.86149 121.063 1.68306 120.45 1.51909 119.812C1.27797 118.9 1.06658 117.976 0.884934 117.04C0.846354 116.861 0.812596 116.682 0.78125 116.5L12.5434 108.677L16.9656 108.653L30.4928 108.574L38.0472 108.53H39.4265H40.2921L45.3268 108.503L83.6995 108.28L85.6623 108.267H86.5135L88.768 108.255L97.1568 108.206L98.7675 107.583L98.8856 107.711L99.8212 108.682Z" fill="#3F3D56"/>
<path d="M99.0975 107.455L98.8973 107.701L97.5808 109.278L94.8705 112.534L89.1872 119.351L38.8402 118.043L0.87494 117.062C0.83636 116.883 0.802602 116.704 0.771256 116.522C0.194938 113.374 -0.0596 110.174 0.0117096 106.972L4.22176 104.779L5.18627 104.274L12.6925 100.348L19.2801 96.9139L36.4627 99.1856L40.2676 99.6885L41.9893 99.9142L44.509 100.248L44.7212 100.277L84.2345 105.49L88.6013 106.067L91.1644 106.405L99.0637 107.45L99.0975 107.455Z" fill="#504F60"/>
<path d="M90.8996 119.231L90.8586 120.195L90.6175 125.639L89.3203 155.568L89.0454 162.037L88.322 178.679L87.9145 188.08L86.4436 187.612C85.6817 187.365 84.9205 187.113 84.1602 186.856L87.6878 121.601L87.7626 120.232L89.3154 119.741L90.8996 119.231Z" fill="#3F3D56"/>
<path d="M3.61238 119.16L3.50388 121.679L3.34473 125.359C2.88499 124.196 2.46382 123.011 2.08123 121.804L2.04506 121.684C1.85216 121.071 1.67373 120.457 1.50977 119.82L3.61238 119.16Z" fill="#3F3D56"/>
<path d="M66.666 82.0672C72.7918 82.0672 77.7578 75.2575 77.7578 66.8573C77.7578 58.4571 72.7918 51.6474 66.666 51.6474C60.5402 51.6474 55.5742 58.4571 55.5742 66.8573C55.5742 75.2575 60.5402 82.0672 66.666 82.0672Z" fill="#A1616A"/>
<path opacity="0.1" d="M66.666 82.0672C72.7918 82.0672 77.7578 75.2575 77.7578 66.8573C77.7578 58.4571 72.7918 51.6474 66.666 51.6474C60.5402 51.6474 55.5742 58.4571 55.5742 66.8573C55.5742 75.2575 60.5402 82.0672 66.666 82.0672Z" fill="black"/>
<path d="M68.2338 73.3583C76.7567 73.3583 83.6659 66.3289 83.6659 57.6577C83.6659 48.9866 76.7567 41.9572 68.2338 41.9572C59.7109 41.9572 52.8018 48.9866 52.8018 57.6577C52.8018 66.3289 59.7109 73.3583 68.2338 73.3583Z" fill="#A1616A"/>
<path d="M68.5398 33.4593C67.5976 33.5357 66.6621 33.6808 65.7403 33.8935C63.3001 34.497 61.1903 35.8364 59.1359 37.1513C58.2148 37.7426 57.2672 38.3583 56.6957 39.2268C55.6685 40.7846 56.0664 42.7667 55.4901 44.4963C55.1911 45.3843 54.6413 46.1816 54.1759 47.0083C52.8956 49.2751 52.2252 51.7651 51.567 54.2306C51.4319 54.7409 51.3933 55.4327 51.9407 55.6289C52.2559 55.6955 52.5837 55.6577 52.8763 55.521C54.6051 54.9396 56.8018 54.7727 58.0846 55.9527C59.3674 57.1327 59.2589 59.2253 60.7852 60.1232C62.5334 61.1609 65.2629 59.9073 66.8495 61.1315C67.5295 61.6564 67.7754 62.4979 68.3324 63.1308C69.6297 64.6027 72.1253 64.5316 74.2014 64.2348C75.3926 64.063 76.8538 63.9477 77.5772 64.799C77.9244 65.2013 78.0233 65.7533 78.4259 66.1164C79.1493 66.7738 80.4731 66.4402 81.1796 65.7656C81.8861 65.0909 82.2237 64.1783 82.812 63.4203C83.9574 61.9484 85.9708 61.1462 87.1523 59.6914C88.1409 58.4648 88.4399 56.9291 88.7099 55.4474L89.7154 49.9546C90.1229 47.7271 90.4943 45.2935 89.2621 43.331C88.8233 42.6245 88.1939 42.0161 87.8154 41.285C87.5622 40.7944 87.4199 40.2767 87.1258 39.8131C86.7769 39.3301 86.3601 38.9019 85.8888 38.5423L83.5089 36.538C82.6952 35.8134 81.8251 35.1571 80.9071 34.5755C77.5097 32.5614 72.4219 33.0913 68.5398 33.4593Z" fill="#464353"/>
<path d="M17.7107 73.9029C17.1392 74.5211 16.6111 75.1884 15.9987 75.7674C15.4599 76.2549 14.8965 76.7134 14.3108 77.1412C13.3656 77.8608 12.4413 78.6057 11.5379 79.376C10.5953 80.1342 9.74249 81.0011 8.9964 81.9593C7.70879 83.7182 7.09874 85.9065 5.89311 87.7243C4.82734 89.3361 3.32512 90.6093 2.24247 92.2088C1.7675 92.8813 1.41472 93.6348 1.2008 94.4338C1.04113 95.2071 0.969128 95.9965 0.986202 96.7865C0.964501 98.0818 0.945212 99.3918 1.20563 100.66C1.46604 101.928 2.03751 103.175 3.01648 104.006C3.92552 104.779 5.09981 105.135 6.24998 105.429C6.84315 105.579 7.48454 105.719 8.04877 105.481C8.46165 105.268 8.82002 104.961 9.09526 104.583L12.0298 101.148C13.9925 98.8423 16.0324 96.4872 18.7258 95.1379C19.5698 94.7184 20.4595 94.402 21.3059 93.9947C24.8938 92.2358 27.4305 88.6345 28.4142 84.7093C28.6554 83.7501 28.8097 82.7713 28.9664 81.7925L29.3908 79.1086C29.4234 78.9741 29.4234 78.8335 29.3908 78.699C29.3244 78.5477 29.2174 78.4184 29.0822 78.3261C27.0382 76.6466 25.1244 74.8095 23.3578 72.8309C22.9383 72.3599 22.5452 71.7147 22.0606 71.3197C21.4529 70.8291 21.4988 70.8659 20.7682 71.3197C19.6442 72.0437 18.6166 72.9119 17.7107 73.9029V73.9029Z" fill="#A1616A"/>
<path d="M37.7846 91.7622C37.7602 91.7052 37.7248 91.6539 37.6804 91.6112C37.636 91.5685 37.5835 91.5354 37.5262 91.5138C37.4689 91.4923 37.408 91.4827 37.3469 91.4858C37.2859 91.4888 37.2261 91.5044 37.1712 91.5315C37.1162 91.5586 37.0672 91.5968 37.0271 91.6437C36.987 91.6905 36.9566 91.7452 36.9378 91.8043C36.919 91.8634 36.9121 91.9258 36.9176 91.9877C36.923 92.0496 36.9408 92.1098 36.9696 92.1645L36.7285 92.2848L43.9189 107.279L45.2185 106.634L38.0282 91.6297L37.7846 91.7622Z" fill="#3F3D56"/>
<path opacity="0.04" d="M17.7107 73.9029C17.1392 74.5211 16.6111 75.1884 15.9987 75.7674C15.4599 76.2549 14.8965 76.7134 14.3108 77.1412C13.3656 77.8608 12.4413 78.6057 11.5379 79.376C10.5953 80.1342 9.74249 81.0011 8.9964 81.9593C7.70879 83.7182 7.09874 85.9065 5.89311 87.7243C4.82734 89.3361 3.32512 90.6093 2.24247 92.2088C1.7675 92.8813 1.41472 93.6348 1.2008 94.4338C1.04113 95.2071 0.969128 95.9965 0.986202 96.7865C0.964501 98.0818 0.945212 99.3918 1.20563 100.66C1.46604 101.928 2.03751 103.175 3.01648 104.006C3.92552 104.779 5.09981 105.135 6.24998 105.429C6.84315 105.579 7.48454 105.719 8.04877 105.481C8.46165 105.268 8.82002 104.961 9.09526 104.583L12.0298 101.148C13.9925 98.8423 16.0324 96.4872 18.7258 95.1379C19.5698 94.7184 20.4595 94.402 21.3059 93.9947C24.8938 92.2358 27.4305 88.6345 28.4142 84.7093C28.6554 83.7501 28.8097 82.7713 28.9664 81.7925L29.3908 79.1086C29.4234 78.9741 29.4234 78.8335 29.3908 78.699C29.3244 78.5477 29.2174 78.4184 29.0822 78.3261C27.0382 76.6466 25.1244 74.8095 23.3578 72.8309C22.9383 72.3599 22.5452 71.7147 22.0606 71.3197C21.4529 70.8291 21.4988 70.8659 20.7682 71.3197C19.6442 72.0437 18.6166 72.9119 17.7107 73.9029V73.9029Z" fill="black"/>
<path d="M100.836 101.536C100.812 103.101 100.752 104.713 100.113 106.141C99.838 106.759 99.4112 107.367 98.7722 107.571C98.3855 107.662 97.9853 107.677 97.5931 107.615C92.8624 107.192 88.0956 107.577 83.4896 108.753C84.7194 106.251 84.0129 103.251 84.3529 100.474C84.4469 99.7156 84.6181 98.9698 84.6832 98.2093C84.9243 95.5108 83.7886 92.8908 83.2678 90.2266C82.8157 87.9204 82.8157 85.546 83.2678 83.2398C83.3565 82.6462 83.5571 82.0756 83.8586 81.5594C84.2117 81.0571 84.6759 80.6462 85.2137 80.3598C87.1668 79.2288 89.4696 79.0988 91.6638 79.2485C93.1419 79.3491 96.1053 79.2068 97.3375 80.1316C98.6854 81.1448 99.1122 84.5474 99.4763 86.1199C100.021 88.5316 100.392 90.9808 100.585 93.4477C100.822 96.1364 100.872 98.8374 100.836 101.536Z" fill="#A1616A"/>
<path d="M14.4629 106.967L23.1434 112.855L62.2058 111.383L36.4053 106.967H14.4629Z" fill="white"/>
<path d="M25.9087 60.187C24.4836 61.4652 23.2756 62.9714 21.9253 64.333C20.0735 66.2023 17.9684 67.792 15.873 69.3743C16.6243 69.588 17.3082 69.9965 17.8577 70.5598C18.4072 71.1232 18.8035 71.822 19.0077 72.588C19.0993 72.9486 19.1451 73.324 19.2488 73.6772C19.4899 74.5138 20.0204 75.235 20.5895 75.8851C23.0345 78.6891 26.456 80.7646 27.898 84.226C27.945 84.3945 28.0471 84.5416 28.1873 84.6431C28.3047 84.6959 28.435 84.7113 28.5611 84.6872C29.8656 84.5474 30.8638 83.4778 31.6957 82.4376C33.4318 80.2298 34.9388 77.7913 35.7948 75.0976C36.6508 72.404 36.7883 69.4258 35.8551 66.7567C35.3898 65.4271 34.6712 64.2054 33.9575 62.996C33.3321 61.9378 32.7084 60.8813 32.0863 59.8264C31.7608 59.2695 31.3461 58.1386 30.7071 57.8639C29.3279 57.2604 26.7936 59.2867 25.9087 60.187Z" fill="#6C63FF"/>
<path d="M96.9304 76.0421L98.9823 80.9485C96.7485 80.1544 94.361 79.9127 92.0172 80.2433C89.6734 80.5739 87.4406 81.4673 85.5034 82.8498C84.334 83.701 83.2609 84.7706 82.7329 86.1297C82.4722 86.1801 82.2029 86.1546 81.9559 86.0561C81.7089 85.9575 81.4943 85.79 81.3368 85.5728C81.0281 85.1324 80.8491 84.6116 80.8208 84.0715C80.6303 82.1874 81.3319 80.3401 82.0264 78.5787C82.3495 77.7544 82.6822 76.913 83.2561 76.2433C83.83 75.5735 84.592 75.132 85.3539 74.7149C87.7848 73.3471 90.3307 72.2027 92.9614 71.2951C94.0706 70.9296 95.2328 70.937 95.8549 71.9919C96.5759 73.2504 96.3661 74.7027 96.9304 76.0421Z" fill="#6C63FF"/>
<path d="M14.513 90.7638C15.0266 91.1809 15.4775 91.674 16.0055 92.0714C16.564 92.4659 17.1582 92.8052 17.7802 93.0846L20.1577 94.2474C20.8945 94.637 21.6654 94.9557 22.4605 95.1992C23.478 95.4764 24.5462 95.5034 25.5686 95.761C26.8586 96.0848 28.0377 96.7595 29.3084 97.1495C30.5792 97.5396 32.0669 97.6034 33.1279 96.7914C33.791 96.2836 34.2925 95.4446 35.1147 95.3194C35.6452 95.2483 36.1564 95.5083 36.629 95.761L42.8163 99.0704C43.6506 99.5169 44.5331 100.012 44.9695 100.864C45.406 101.715 45.1118 103.008 44.1931 103.229C43.8729 103.266 43.5509 103.285 43.2286 103.285C42.9103 103.324 42.5631 103.516 42.5197 103.842C42.5181 104.045 42.5706 104.244 42.6716 104.418C42.9489 105.066 43.0309 105.841 42.7078 106.469C42.3847 107.097 41.5914 107.487 40.9572 107.205C41.0657 108.155 40.0506 108.819 39.1464 109.072C36.8653 109.708 34.4468 109.317 32.1151 108.915C31.1989 108.758 30.2681 108.596 29.4338 108.179C29.0335 107.98 28.6622 107.725 28.2571 107.541C27.1455 107.038 25.882 107.105 24.6668 107.127C19.0461 107.227 13.4737 106.168 7.9471 105.113C6.92232 104.916 5.8686 104.708 4.99331 104.131C3.30543 103.013 2.67851 100.717 2.9558 98.6853C3.2331 96.654 4.24582 94.8141 5.24167 93.0281L6.5317 90.7148C6.70033 90.3604 6.93637 90.0435 7.22614 89.7826C9.1238 88.3082 12.8878 89.4342 14.513 90.7638Z" fill="#A1616A"/>
<path opacity="0.04" d="M14.513 90.7638C15.0266 91.1809 15.4775 91.674 16.0055 92.0714C16.564 92.4659 17.1582 92.8052 17.7802 93.0846L20.1577 94.2474C20.8945 94.637 21.6654 94.9557 22.4605 95.1992C23.478 95.4764 24.5462 95.5034 25.5686 95.761C26.8586 96.0848 28.0377 96.7595 29.3084 97.1495C30.5792 97.5396 32.0669 97.6034 33.1279 96.7914C33.791 96.2836 34.2925 95.4446 35.1147 95.3194C35.6452 95.2483 36.1564 95.5083 36.629 95.761L42.8163 99.0704C43.6506 99.5169 44.5331 100.012 44.9695 100.864C45.406 101.715 45.1118 103.008 44.1931 103.229C43.8729 103.266 43.5509 103.285 43.2286 103.285C42.9103 103.324 42.5631 103.516 42.5197 103.842C42.5181 104.045 42.5706 104.244 42.6716 104.418C42.9489 105.066 43.0309 105.841 42.7078 106.469C42.3847 107.097 41.5914 107.487 40.9572 107.205C41.0657 108.155 40.0506 108.819 39.1464 109.072C36.8653 109.708 34.4468 109.317 32.1151 108.915C31.1989 108.758 30.2681 108.596 29.4338 108.179C29.0335 107.98 28.6622 107.725 28.2571 107.541C27.1455 107.038 25.882 107.105 24.6668 107.127C19.0461 107.227 13.4737 106.168 7.9471 105.113C6.92232 104.916 5.8686 104.708 4.99331 104.131C3.30543 103.013 2.67851 100.717 2.9558 98.6853C3.2331 96.654 4.24582 94.8141 5.24167 93.0281L6.5317 90.7148C6.70033 90.3604 6.93637 90.0435 7.22614 89.7826C9.1238 88.3082 12.8878 89.4342 14.513 90.7638Z" fill="black"/>
<path d="M88.1196 95.0029C86.8633 95.6064 85.4214 95.6652 84.1097 96.1289C82.7979 96.5926 81.6839 97.4266 80.4807 98.1062C77.3461 99.8872 73.7292 100.559 70.1774 101.2C68.0242 101.592 65.8372 101.985 63.667 101.891C60.7301 101.764 57.9089 100.768 55.0637 100.017C52.2184 99.2666 49.1826 98.7612 46.3638 99.6051C44.8919 100.061 43.5463 100.864 42.4361 101.947C41.326 103.031 40.4825 104.366 39.974 105.844C39.3833 107.607 39.3013 109.509 39.4146 111.368C40.0078 111.812 40.8373 111.196 41.1604 110.522C41.4835 109.847 41.6595 109.021 42.2864 108.628C43.3739 109.003 43.6391 110.478 44.5361 111.206C45.0955 111.663 45.843 111.783 46.5543 111.886L50.2195 112.416C51.102 112.543 52.1268 112.629 52.7657 111.996C53.0768 111.69 53.248 111.26 53.5325 110.932C54.116 110.274 55.0902 110.161 55.9582 110.25C58.6685 110.524 61.21 112.313 63.9009 111.888C64.8268 111.744 65.6877 111.341 66.5702 111.025C71.8002 109.146 77.6113 110.289 83.0535 109.212C85.1296 108.802 87.1285 108.076 89.1034 107.311C90.1764 106.896 91.2614 106.462 92.1777 105.76C93.0458 105.081 93.7303 104.189 94.1672 103.167C94.6041 102.146 94.7791 101.028 94.6758 99.9191C94.4739 98.2288 93.645 96.6808 92.3586 95.5916C91.9342 95.2237 91.3772 94.5196 90.8684 94.289C89.8967 93.8548 88.9442 94.6079 88.1196 95.0029Z" fill="#A1616A"/>
<g opacity="0.1">
<path opacity="0.1" d="M81.0737 63.6632C80.671 63.3001 80.5721 62.7481 80.2249 62.3458C79.5016 61.4945 78.0403 61.6098 76.8492 61.7816C74.7731 62.0784 72.2678 62.1471 70.9802 60.6776C70.4232 60.0447 70.1772 59.2057 69.4972 58.6783C67.9106 57.4516 65.1811 58.7077 63.4329 57.67C61.9066 56.7648 62.0055 54.6648 60.7323 53.4995C59.4592 52.3343 57.2529 52.4864 55.524 53.0678C55.2315 53.2045 54.9036 53.2423 54.5884 53.1757C54.0411 52.9794 54.0797 52.2876 54.2147 51.7774C54.873 49.3119 55.5433 46.8219 56.8237 44.5551C57.289 43.7284 57.8388 42.9311 58.1378 42.043C58.661 40.4877 58.3934 38.7288 59.0806 37.2568C58.3428 37.7475 57.6338 38.2823 57.1781 38.9741C56.1509 40.5319 56.5488 42.5141 55.9725 44.2436C55.6735 45.1316 55.1237 45.9289 54.6584 46.7557C53.378 49.0224 52.7076 51.5124 52.0494 53.9779C51.9143 54.4882 51.8758 55.18 52.4231 55.3762C52.7383 55.4428 53.0662 55.405 53.3587 55.2683C55.0876 54.6869 57.2842 54.5201 58.567 55.7001C59.8498 56.8801 59.7413 58.9726 61.2676 59.8705C63.0158 60.9082 65.7453 59.6546 67.3319 60.8788C68.0119 61.4038 68.2579 62.2452 68.8149 62.8781C70.1121 64.3501 72.6078 64.2789 74.6839 63.9821C75.875 63.8104 77.3362 63.6951 78.0596 64.5463C78.4068 64.9487 78.5057 65.5006 78.9084 65.8637C79.6318 66.5212 80.9555 66.1875 81.662 65.5129C82.115 65.033 82.5027 64.4933 82.8146 63.9085C82.1877 64.1023 81.5198 64.0729 81.0737 63.6632Z" fill="black"/>
<path opacity="0.1" d="M85.4668 60.9646C85.3115 61.1681 85.1674 61.3803 85.0352 61.6C85.9611 60.9278 86.9425 60.2998 87.6345 59.4436C87.8141 59.2221 87.9754 58.9858 88.1167 58.7371C87.1546 59.4387 86.1516 60.0839 85.4668 60.9646Z" fill="black"/>
</g>
<path d="M134.182 109.543L134.905 179.95L138.281 179.46L137.557 109.543H134.182Z" fill="#3F3D56"/>
<path d="M154.436 122.3L155.159 192.707L158.535 192.216L157.811 122.3H154.436Z" fill="#3F3D56"/>
<path d="M217.498 157.866L217.484 156.515V155.71L217.356 143.326L217.156 123.966L217.122 122.295H213.746L213.763 123.904L213.869 134.274L213.915 138.763L213.953 142.399L214.016 148.684L214.055 152.391V152.783L214.105 157.655L214.149 161.951L214.424 161.642C214.866 161.14 215.298 160.63 215.721 160.111L217.498 157.866Z" fill="#3F3D56"/>
<path d="M150.699 133.707L148.77 136.641L150.699 150.009L167.095 154.574H193.619L209.533 155.553L217.114 150.274L215.802 141.207L210.015 133.707H150.699Z" fill="#6C63FF"/>
<path d="M148.77 136.641L147.805 144.791C147.805 144.791 142.741 160.769 183.492 159.79C224.242 158.811 217.249 155.551 217.249 155.551L217.008 146.096C217.008 146.096 218.428 150.571 197.718 149.965C177.008 149.359 157.691 147.401 157.691 147.401C157.691 147.401 150.458 148.704 148.77 136.641Z" fill="#3F3D56"/>
<path d="M182.72 63.5945C180.396 64.6715 178.636 66.7592 177.456 69.0676C176.277 71.3761 175.614 73.9103 174.961 76.4273C174.271 79.0816 173.579 81.7434 173.222 84.464C172.586 89.3017 173.063 94.3872 175.248 98.7319C177.432 103.076 181.469 106.582 186.195 107.419C188.02 107.745 189.896 107.679 191.741 107.485C195.075 107.126 198.359 106.389 201.533 105.289C204.848 104.149 208.299 102.392 209.775 99.1563C210.631 97.2796 210.703 95.1404 210.662 93.0748C210.548 87.4449 209.712 81.8542 208.176 76.4445C207.73 74.8744 207.211 73.2921 206.266 71.9698C205.321 70.6475 204.029 69.6785 202.71 68.7806C197.07 64.9168 189.657 60.3857 182.72 63.5945Z" fill="#FBBEBE"/>
<path opacity="0.05" d="M182.72 63.5945C180.396 64.6715 178.636 66.7592 177.456 69.0676C176.277 71.3761 175.614 73.9103 174.961 76.4273C174.271 79.0816 173.579 81.7434 173.222 84.464C172.586 89.3017 173.063 94.3872 175.248 98.7319C177.432 103.076 181.469 106.582 186.195 107.419C188.02 107.745 189.896 107.679 191.741 107.485C195.075 107.126 198.359 106.389 201.533 105.289C204.848 104.149 208.299 102.392 209.775 99.1563C210.631 97.2796 210.703 95.1404 210.662 93.0748C210.548 87.4449 209.712 81.8542 208.176 76.4445C207.73 74.8744 207.211 73.2921 206.266 71.9698C205.321 70.6475 204.029 69.6785 202.71 68.7806C197.07 64.9168 189.657 60.3857 182.72 63.5945Z" fill="black"/>
<path d="M180.109 94.4731C180.781 95.414 181.595 96.2417 182.52 96.9263C184.815 98.5405 187.762 98.7588 190.549 98.8471C192.787 98.9158 195.353 98.7858 196.756 97.0097C197.388 96.2099 197.672 95.1894 197.928 94.1959C199.505 88.0949 200.626 81.8811 201.279 75.6079L207.664 75.63C210.428 87.6679 210.201 100.182 209.96 112.543L209.61 130.57L205.497 130.126C195.729 129.073 185.946 128.021 176.125 127.839C170.371 127.731 164.615 127.925 158.88 128.418L167.838 101.32C169 97.7972 170.174 94.2277 170.447 90.5259C170.84 85.1558 169.359 79.4864 171.411 74.5187C171.575 74.1188 171.783 73.7042 172.156 73.4957C172.53 73.2872 173.003 73.3387 173.432 73.3951C174.242 73.5055 176.718 73.3951 177.307 73.9225C178.175 74.6879 177.601 74.8032 177.295 76.0372C176.747 78.2451 176.229 80.2886 176.236 82.5897C176.243 86.7675 177.516 91.1784 180.109 94.4731Z" fill="#6C63FF"/>
<path d="M217.498 157.866C218.573 156.414 219.587 154.91 220.539 153.355C220.056 152.305 219.526 151.28 219.104 150.208C218.458 148.564 218.086 146.822 217.72 145.093C217.594 144.504 217.47 143.915 217.346 143.326C215.996 136.921 214.727 130.425 214.465 123.931C214.441 123.392 214.425 122.852 214.419 122.312C214.419 122.234 214.419 122.158 214.419 122.067C214.419 121.476 214.419 120.884 214.419 120.296C214.448 118.824 214.539 117.339 214.706 115.863C214.737 115.573 214.773 115.284 214.812 114.994C214.812 114.93 214.826 114.869 214.836 114.805L231.233 114.197L232.612 114.145C233.559 114.111 234.562 114.057 235.344 113.51C236.658 112.592 236.812 110.711 236.79 109.094C236.711 105.008 236.255 100.938 235.431 96.9386C234.808 93.9309 233.921 90.8571 231.929 88.5461C230.295 86.6474 227.927 85.2662 227.076 82.9038C226.76 82.0255 226.68 81.0614 226.27 80.2224C225.86 79.3834 225.183 78.7676 224.544 78.12C222.295 75.8529 220.429 73.2237 219.022 70.3384C218.045 68.3366 216.987 66.1287 215.711 64.7451C215.649 64.674 215.586 64.6077 215.521 64.5439C214.436 63.4523 213.194 62.9739 211.723 63.7172C211.459 63.8522 211.207 64.0115 210.971 64.1931V64.1931C210.447 64.6006 209.967 65.0645 209.541 65.5767C208.055 67.3148 206.752 69.2058 205.651 71.2191C204.878 72.6366 204.214 74.1129 203.665 75.6349C203.231 76.8373 202.873 78.0664 202.592 79.3147C202.384 80.2396 202.22 81.1742 202.09 82.1114C201.608 85.6342 201.608 89.2257 201.675 92.7926C201.748 96.0701 201.89 99.355 202.182 102.62C202.254 103.41 202.334 104.199 202.423 104.988C202.6 106.546 202.818 108.1 203.079 109.649C203.182 110.24 203.288 110.831 203.407 111.42C203.436 111.577 203.467 111.734 203.498 111.888L203.513 111.955C203.831 113.323 204.078 114.708 204.253 116.103C204.272 116.278 204.287 116.452 204.296 116.626C204.337 117.427 204.331 118.231 204.277 119.032C204.222 119.979 204.135 120.924 204.091 121.871C204.091 122.037 204.091 122.202 204.075 122.361C204.062 122.84 204.075 123.318 204.075 123.796C204.123 124.941 204.257 126.08 204.475 127.204C204.881 129.294 205.584 131.314 206.561 133.199C206.652 133.376 206.746 133.55 206.84 133.722C208.063 135.945 209.606 137.983 210.737 140.257C211.712 142.304 212.441 144.463 212.907 146.687C213.068 147.422 213.22 148.157 213.365 148.895C213.589 150.073 213.789 151.26 213.994 152.447C214.014 152.565 214.035 152.693 214.057 152.801C214.33 154.376 214.617 155.943 214.985 157.481C215.2 158.377 215.441 159.26 215.723 160.128L217.498 157.866Z" fill="#464353"/>
<path d="M214.276 138.53C214.276 138.751 214.262 138.972 214.252 139.195C214.209 140.271 214.112 141.345 213.961 142.411C213.761 143.867 213.411 145.297 212.917 146.677C212.589 147.585 212.172 148.457 211.672 149.28C211.229 150.011 210.71 150.691 210.124 151.309C208.678 152.84 206.594 153.328 204.578 153.973C203.651 154.246 202.755 154.619 201.904 155.084C201.752 155.17 201.603 155.264 201.458 155.362L198.936 157.062C198.15 157.589 197.347 158.136 196.807 158.919C196.718 159.052 196.638 159.19 196.566 159.333C196.224 160.054 195.975 160.816 195.823 161.6C194.511 167.159 193.197 172.723 192.298 178.365C192.238 178.738 192.18 179.114 192.117 179.489L192.095 179.607C192.084 179.579 192.072 179.552 192.057 179.526C185.604 183.495 178.913 187.077 172.019 189.945L170.522 177.188C170.366 176.151 170.314 175.1 170.367 174.053C170.51 172.402 171.17 170.836 171.349 169.19C171.518 167.579 171.219 165.952 170.488 164.512C170.203 163.953 169.847 163.403 169.782 162.778C169.716 162.152 170.071 161.581 170.688 161.517C171.17 160.972 171.209 160.229 171.067 159.493C170.991 159.109 170.878 158.733 170.729 158.372C170.319 157.346 169.801 156.23 170.153 155.183C170.246 154.993 170.288 154.781 170.273 154.569C170.276 154.556 170.276 154.543 170.273 154.53C170.191 154.255 169.871 154.135 169.704 153.902C169.391 153.468 169.704 152.877 169.897 152.376C170.085 151.838 170.194 151.275 170.22 150.705C170.247 150.389 170.266 150.07 170.3 149.756C170.347 149.331 170.422 148.91 170.524 148.495C171.11 146.145 172.519 144.093 174.486 142.725C175.424 142.082 176.468 141.614 177.425 141.008C178.406 140.335 179.342 139.598 180.227 138.8C182.351 137.001 184.559 135.305 186.851 133.712C189.316 131.999 191.869 130.422 194.499 128.987C195.062 128.678 195.625 128.377 196.187 128.084C196.8 127.757 197.416 127.447 198.037 127.155C200.024 126.191 202.278 126.551 204.475 127.194C205.396 127.461 206.305 127.78 207.183 128.07C208.04 128.353 208.864 128.73 209.642 129.193C211.588 130.356 213.196 132.073 213.864 134.242C213.865 134.256 213.865 134.27 213.864 134.284C214.289 135.643 214.315 137.1 214.276 138.53Z" fill="#F86D70"/>
<path opacity="0.1" d="M214.276 138.53C214.276 138.751 214.262 138.972 214.252 139.195C214.209 140.271 214.112 141.345 213.961 142.411C213.761 143.867 213.411 145.297 212.917 146.677C212.589 147.585 212.172 148.457 211.672 149.28C211.229 150.011 210.71 150.691 210.124 151.309C208.678 152.84 206.594 153.328 204.578 153.973C203.651 154.246 202.755 154.619 201.904 155.084C201.752 155.17 201.603 155.264 201.458 155.362L198.936 157.062C198.15 157.589 197.347 158.136 196.807 158.919C196.718 159.052 196.638 159.19 196.566 159.333C196.224 160.054 195.975 160.816 195.823 161.6C194.511 167.159 193.197 172.723 192.298 178.365C192.238 178.738 192.18 179.114 192.117 179.489L192.095 179.607C192.084 179.579 192.072 179.552 192.057 179.526C185.604 183.495 178.913 187.077 172.019 189.945L170.522 177.188C170.366 176.151 170.314 175.1 170.367 174.053C170.51 172.402 171.17 170.836 171.349 169.19C171.518 167.579 171.219 165.952 170.488 164.512C170.203 163.953 169.847 163.403 169.782 162.778C169.716 162.152 170.071 161.581 170.688 161.517C171.17 160.972 171.209 160.229 171.067 159.493C170.991 159.109 170.878 158.733 170.729 158.372C170.319 157.346 169.801 156.23 170.153 155.183C170.246 154.993 170.288 154.781 170.273 154.569C170.276 154.556 170.276 154.543 170.273 154.53C170.191 154.255 169.871 154.135 169.704 153.902C169.391 153.468 169.704 152.877 169.897 152.376C170.085 151.838 170.194 151.275 170.22 150.705C170.247 150.389 170.266 150.07 170.3 149.756C170.347 149.331 170.422 148.91 170.524 148.495C171.11 146.145 172.519 144.093 174.486 142.725C175.424 142.082 176.468 141.614 177.425 141.008C178.406 140.335 179.342 139.598 180.227 138.8C182.351 137.001 184.559 135.305 186.851 133.712C189.316 131.999 191.869 130.422 194.499 128.987C195.062 128.678 195.625 128.377 196.187 128.084C196.8 127.757 197.416 127.447 198.037 127.155C200.024 126.191 202.278 126.551 204.475 127.194C205.396 127.461 206.305 127.78 207.183 128.07C208.04 128.353 208.864 128.73 209.642 129.193C211.588 130.356 213.196 132.073 213.864 134.242C213.865 134.256 213.865 134.27 213.864 134.284C214.289 135.643 214.315 137.1 214.276 138.53Z" fill="black"/>
<path d="M191.381 97.8953C191.357 97.8383 191.321 97.7869 191.277 97.7442C191.233 97.7016 191.18 97.6684 191.123 97.6469C191.066 97.6253 191.005 97.6158 190.944 97.6188C190.883 97.6219 190.823 97.6374 190.768 97.6645C190.713 97.6917 190.664 97.7298 190.624 97.7767C190.584 97.8236 190.553 97.8782 190.534 97.9374C190.516 97.9965 190.509 98.0589 190.514 98.1208C190.52 98.1827 190.537 98.2428 190.566 98.2976L190.325 98.4178L197.516 113.412L198.815 112.767L191.625 97.7628L191.381 97.8953Z" fill="#3F3D56"/>
<path d="M200.371 82.1898C208.893 82.1898 215.803 75.1604 215.803 66.4893C215.803 57.8181 208.893 50.7888 200.371 50.7888C191.848 50.7888 184.938 57.8181 184.938 66.4893C184.938 75.1604 191.848 82.1898 200.371 82.1898Z" fill="#FBBEBE"/>
<path d="M220.739 56.7697C220.666 55.5216 220.484 54.2826 220.194 53.0678C219.287 49.1009 217.63 45.1954 214.778 42.3473C214.602 41.6509 214.392 40.964 214.149 40.289C214.144 40.2723 214.138 40.2559 214.132 40.24C213.281 37.8623 212.051 35.6435 210.491 33.6727C209.586 32.5295 208.415 31.4011 206.973 31.3569C206.568 31.3422 206.138 31.4133 205.767 31.2244C205.494 31.0448 205.264 30.805 205.094 30.5228C204.38 29.6048 203.433 28.9027 202.355 28.4924C201.278 28.0821 200.11 27.9791 198.979 28.1947L198.83 28.2266C198.745 28.2438 198.661 28.2634 198.589 28.2855C198.516 28.3076 198.386 28.3444 198.285 28.3762C198.396 28.5627 198.504 28.7516 198.61 28.9429C198.897 29.4614 199.162 29.9913 199.406 30.5326C199.609 30.984 199.796 31.4428 199.968 31.9089C197.499 32.1959 195.488 33.9794 193.65 35.677L189.325 39.6708C189.317 39.6775 189.31 39.6849 189.303 39.6929L189.178 39.8156C189.146 39.8474 189.115 39.8793 189.086 39.9137C189.074 39.9239 189.064 39.9354 189.055 39.948C189.018 39.9873 188.985 40.029 188.951 40.0707C188.891 40.148 188.837 40.23 188.789 40.316C188.766 40.3528 188.745 40.3914 188.727 40.4313C188.72 40.4431 188.714 40.4554 188.71 40.4681C188.694 40.5016 188.68 40.536 188.669 40.5711C188.668 40.576 188.668 40.581 188.669 40.5859C188.662 40.606 188.656 40.6264 188.652 40.6472C188.603 40.8198 188.617 41.0048 188.693 41.1673L191.545 41.1992H191.881C191.895 41.5868 191.907 41.9768 191.922 42.3644C191.469 42.7091 191.034 43.0776 190.619 43.4684C190.167 43.8944 189.743 44.35 189.349 44.8324C186.776 47.9946 185.433 52.0791 185.298 56.1907C185.298 56.3183 185.298 56.436 185.298 56.5685C185.298 56.9438 185.298 57.3192 185.298 57.6921C185.298 57.9374 185.32 58.1827 185.339 58.428C185.34 58.7476 185.423 59.0613 185.58 59.3382C185.601 59.3691 185.623 59.3986 185.647 59.4265C185.792 59.5863 185.966 59.7162 186.159 59.8092L186.366 59.9122C186.47 59.9638 186.569 60.0128 186.665 60.0692C187.574 60.5918 188.112 61.6 188.939 62.2477C188.987 62.2845 189.035 62.3213 189.084 62.3532L189.192 62.4268L189.26 62.4709L189.351 62.5249C189.411 62.5618 189.473 62.5954 189.537 62.6255V62.6255L189.653 62.6844H189.672C189.768 62.7285 189.865 62.7702 189.964 62.807L190.101 62.8561L190.142 62.8708C190.181 62.8831 190.222 62.8978 190.263 62.9076C190.345 62.9321 190.425 62.9542 190.504 62.9738L190.745 63.0278C190.839 63.045 190.935 63.0622 191.032 63.0744L191.174 63.094L191.319 63.1088C191.549 63.13 191.78 63.1423 192.013 63.1456C192.745 63.141 193.475 63.0894 194.2 62.991L200.354 62.2551C201.75 62.0907 203.175 61.9263 204.552 62.2158C205.719 62.4611 206.794 63.0254 207.928 63.4252C208.183 63.516 208.439 63.5994 208.697 63.6706C208.791 63.6975 208.887 63.727 208.984 63.7515L209.116 63.7859L209.425 63.8619C209.536 63.8889 209.647 63.9159 209.758 63.9379C209.914 63.9723 210.069 64.0017 210.225 64.0312C210.332 64.0533 210.44 64.0704 210.549 64.09H210.57L210.879 64.1391H210.954L211.183 64.171C211.294 64.1882 211.405 64.2029 211.518 64.2152C211.764 64.2462 212.01 64.2732 212.256 64.2961C212.654 64.3354 213.054 64.3648 213.461 64.3893L213.862 64.4139L214.262 64.4335L215.468 64.4875H215.521H215.689C216.191 64.523 216.694 64.4967 217.189 64.409C217.276 64.3918 217.36 64.3722 217.445 64.3476C217.529 64.3231 217.599 64.2986 217.686 64.2691C218.59 63.9159 219.251 63.1039 219.709 62.2354C219.805 62.0514 219.895 61.8674 219.977 61.6785C220.059 61.4897 220.133 61.2983 220.201 61.1069C220.285 60.8616 220.358 60.6286 220.42 60.3833C220.44 60.317 220.456 60.2508 220.471 60.1821C220.485 60.1134 220.519 59.9785 220.538 59.8754C220.599 59.5933 220.644 59.3087 220.678 59.0217C220.678 58.9309 220.7 58.8377 220.71 58.747C220.731 58.5016 220.748 58.2735 220.758 58.0331C220.758 57.8515 220.758 57.6675 220.758 57.4836C220.755 57.2848 220.739 57.0224 220.739 56.7697ZM214.556 42.124C214.361 41.9376 214.161 41.7585 213.958 41.5892C214.183 41.7339 214.385 41.9145 214.554 42.124H214.556Z" fill="#464353"/>
<path d="M170.753 65.6258C168.937 65.3976 167.136 64.5881 165.344 64.9855C164.223 65.2308 163.259 65.9398 162.362 66.6684C159.023 69.3904 156.185 72.6918 153.978 76.4199C153.603 76.9773 153.34 77.6041 153.204 78.2647C153.088 79.0301 153.293 79.8078 153.536 80.5413C155.186 85.4992 158.713 89.6403 160.319 94.6129C162.007 99.8431 161.421 105.559 160.177 110.917C158.635 117.531 156.128 123.874 152.741 129.733C152.281 130.604 151.705 131.407 151.029 132.118C150.151 132.976 148.972 133.589 148.451 134.713C148.21 135.204 148.14 135.763 147.969 136.288C147.486 137.76 146.319 139.021 146.206 140.574C146.122 141.759 146.674 142.88 147.009 144.008C147.574 145.947 147.514 148.019 146.838 149.92C145.615 153.33 142.418 156.431 143.346 159.937C145.418 159.331 147.713 158.544 148.69 156.588C149.035 155.896 149.206 155.072 149.787 154.567C150.947 153.563 152.921 154.471 154.154 153.549C155.084 152.847 155.118 151.41 154.703 150.306C154.289 149.202 153.575 148.23 153.257 147.094C152.702 145.046 153.589 142.88 153.425 140.763C153.348 139.781 153.052 138.842 153.03 137.865C152.989 135.969 154.021 134.186 155.393 132.898C156.765 131.61 158.46 130.756 160.129 129.915L166.437 126.725C168.725 125.572 171.233 124.167 171.982 121.684C172.267 120.754 172.269 119.763 172.284 118.792C172.498 103.947 176.154 89.4023 179.788 75.024C180.352 72.7965 180.926 70.5592 181.765 68.42C182.604 66.2808 184.246 64.5636 185.083 62.5765C180.229 61.9975 175.795 66.2685 170.753 65.6258Z" fill="#464353"/>
<path d="M205.526 158.752C206.083 162.186 206.423 165.695 206.688 169.185C202.348 172.846 197.675 176.03 192.927 178.984C192.657 179.153 192.385 179.32 192.112 179.474L192.091 179.592C192.08 179.564 192.067 179.537 192.052 179.511C191.684 178.701 191.039 178.055 190.239 177.691C188.459 173.888 186.681 170.086 184.905 166.283C183.94 164.23 182.976 162.157 182.494 159.942C182.494 159.895 182.472 159.846 182.465 159.799C182.098 158.082 182.014 156.299 181.77 154.559C181.647 153.563 181.426 152.582 181.112 151.63C180.823 150.784 180.425 149.962 180.073 149.135C179.639 148.115 179.275 147.082 179.258 145.981C179.258 145.63 179.279 145.245 179.111 144.95C178.93 144.697 178.707 144.478 178.452 144.303C178.134 144.015 177.893 143.651 177.751 143.243C177.609 142.834 177.572 142.396 177.642 141.97C176.196 142.046 175.38 143.628 174.799 144.97C174.271 146.282 173.577 147.519 172.735 148.65C172.122 149.457 171.341 150.118 170.449 150.585C170.37 150.624 170.29 150.664 170.208 150.698C168.195 151.601 165.844 151.282 163.662 150.875C161.754 150.519 159.782 150.077 158.249 148.87L158.085 148.738C157.631 148.354 157.226 147.914 156.879 147.428C155.594 145.642 155.025 143.289 154.709 141.05C154.68 140.839 154.651 140.628 154.624 140.417C154.405 138.834 154.345 137.233 154.444 135.638C154.472 135.245 154.513 134.853 154.564 134.463C154.598 134.217 154.634 133.952 154.675 133.697C154.674 133.69 154.674 133.683 154.675 133.675C154.738 133.27 154.805 132.863 154.873 132.449C155.114 131.058 155.355 129.63 156.078 128.433C156.554 127.688 157.155 127.034 157.853 126.5C158.113 126.291 158.381 126.092 158.651 125.901C159.09 125.592 159.541 125.298 159.999 125.02C161.152 124.318 162.362 123.719 163.616 123.229C163.915 123.112 164.219 123.001 164.523 122.896C165.704 122.468 166.975 122.366 168.207 122.599C169.299 122.76 170.403 122.825 171.506 122.795C174.334 122.739 177.174 122.189 179.998 121.834C183.919 121.343 188.131 121.284 191.55 123.306C191.714 123.401 191.874 123.502 192.033 123.607C193.721 124.731 195.08 126.306 196.178 128.065C196.419 128.435 196.628 128.815 196.836 129.201C197.314 130.085 197.746 130.994 198.131 131.924C198.358 132.38 198.481 132.884 198.49 133.396C198.484 133.493 198.472 133.59 198.451 133.685C198.386 134.033 198.256 134.372 198.21 134.725C198.058 136.062 199.175 137.178 199.592 138.452C199.862 139.281 199.833 140.169 199.985 141.042C200.204 142.269 200.795 143.373 201.326 144.477C202.164 146.254 202.881 148.087 203.472 149.965C203.891 151.272 204.25 152.599 204.566 153.939C204.669 154.369 204.766 154.8 204.858 155.232C205.121 156.419 205.336 157.582 205.526 158.752Z" fill="#F86D70"/>
<path d="M231.235 122.422V124.14L230.924 124.135L230.577 124.13L226.699 124.081L217.146 123.953L214.465 123.919L213.77 123.909L209.746 123.858L204.075 123.781L192.042 123.622L171.163 123.347L163.628 123.249L160.604 123.21L157.822 123.173L156.088 123.149L154.446 123.126L142.272 122.967L138.896 122.923L138.16 122.913L137.683 121.659L134.213 112.556L133.579 110.892L134.061 108.93L136.231 110.402L137.567 110.571L159.56 113.353L163.688 113.875L172.441 114.984L181.016 116.069L184.377 116.493L204.268 119.01L209.825 119.714L214.426 120.295L230.784 122.366L231.235 122.422Z" fill="#3F3D56"/>
<path d="M134.061 108.93L138.401 120.46L231.234 122.422V109.911L134.061 108.93Z" fill="#504F60"/>
<path d="M138.884 121.687L139.607 192.094L142.983 191.603L142.26 121.687H138.884Z" fill="#3F3D56"/>
<path d="M230.924 124.132H230.576C230.014 128.522 229.084 132.855 227.796 137.083L226.699 124.081L226.653 123.526L230.709 123.05L230.844 123.036L230.924 124.132Z" fill="#3F3D56"/>
<path d="M217.732 115.799L182.407 116.535L171.436 112.855L200.853 111.138L217.732 115.799Z" fill="white"/>
<path d="M173.42 101.492C173.046 101.638 172.714 101.878 172.456 102.191C172.254 102.529 172.131 102.91 172.096 103.305L171.503 106.903C171.413 107.233 171.429 107.583 171.549 107.902C171.703 108.204 172.152 108.361 172.376 108.11C172.347 108.814 172.407 109.565 172.81 110.139C173.213 110.713 174.057 111.015 174.626 110.615C174.715 110.763 174.835 110.889 174.977 110.986C175.119 111.082 175.28 111.145 175.448 111.172C175.617 111.199 175.789 111.188 175.953 111.14C176.117 111.092 176.269 111.008 176.398 110.895C176.056 111.013 176.031 111.545 176.275 111.815C176.548 112.06 176.895 112.201 177.259 112.215C181.496 112.822 185.816 112.269 189.773 110.613C190.147 110.456 189.163 105.768 189.064 105.287C188.823 104.156 188.703 102.775 187.765 102.014C185.522 100.194 181.539 99.8357 178.807 100.052C176.94 100.195 175.115 100.683 173.42 101.492V101.492Z" fill="#FBBEBE"/>
<path opacity="0.1" d="M209.363 102.036C200.641 102.206 191.739 102.35 183.415 99.6935C184.21 102.828 184.155 106.124 183.256 109.229L224.035 112.664C225.764 112.808 232.933 113.633 234.618 113.218C236.304 112.803 220.476 107.5 221.115 105.858C222.873 101.337 228.761 98.6877 224.52 98.5184C219.167 98.3025 214.757 101.933 209.363 102.036Z" fill="black"/>
<path d="M209.604 102.527C200.882 102.696 191.98 102.841 183.656 100.184C184.451 103.319 184.396 106.614 183.497 109.72L224.276 113.154C226.005 113.299 233.174 114.136 234.859 113.709C236.545 113.282 236.149 111.179 236.788 109.538C238.546 105.017 229.002 99.1783 224.761 99.009C219.408 98.7931 214.998 102.424 209.604 102.527Z" fill="#464353"/>
<path d="M195.736 103.209C196.111 103.355 196.443 103.595 196.7 103.908C196.902 104.247 197.026 104.628 197.062 105.022L197.655 108.621C197.745 108.95 197.729 109.3 197.61 109.619C197.455 109.921 197.004 110.078 196.782 109.828C196.809 110.532 196.751 111.282 196.348 111.856C195.946 112.431 195.102 112.732 194.53 112.332C194.441 112.48 194.321 112.607 194.179 112.703C194.037 112.799 193.876 112.863 193.708 112.889C193.539 112.916 193.367 112.905 193.203 112.857C193.039 112.809 192.887 112.726 192.758 112.612C193.1 112.73 193.127 113.262 192.883 113.532C192.61 113.777 192.261 113.918 191.897 113.932C187.661 114.54 183.342 113.987 179.385 112.33C179.012 112.173 179.993 107.485 180.094 107.004C180.335 105.873 180.456 104.492 181.394 103.731C183.634 101.911 187.62 101.553 190.352 101.769C192.217 101.913 194.042 102.401 195.736 103.209V103.209Z" fill="#FBBEBE"/>
<path d="M138.107 95.3954C137.307 96.4454 136.504 97.5175 135.988 98.7416C135.002 101.077 135.146 103.722 135.31 106.258C135.356 106.994 135.414 107.745 135.792 108.356C136.12 108.817 136.551 109.192 137.051 109.447C139.139 110.654 141.584 111.015 143.971 111.285C147.627 111.697 151.295 111.948 154.976 112.038C164.096 112.264 173.355 111.506 182.238 113.608C181.139 111.908 181.141 109.658 181.756 107.72C182.371 105.782 183.555 104.095 184.714 102.434C180.649 101.124 176.289 103.17 172.031 102.966C167.66 102.758 163.614 100.187 159.237 100.189C158.297 100.189 157.339 100.309 156.426 100.079C155.512 99.848 154.627 99.1464 154.542 98.1921C155.709 98.4595 156.816 97.4439 157.298 96.3301C157.781 95.2164 157.867 93.9579 158.335 92.8367C159.5 90.0474 162.647 88.7546 164.605 86.4584C164.913 86.0953 165.205 85.666 165.195 85.1852C165.149 84.7779 164.981 84.3949 164.713 84.0886C163.085 81.8807 160.633 80.6541 158.596 78.9369C157.887 78.3383 156.457 76.0813 155.661 75.8728C154.185 75.4876 152.934 77.6563 151.974 78.7136C147.129 84.0698 142.507 89.6304 138.107 95.3954Z" fill="#464353"/>
<path opacity="0.07" d="M186.593 94.7723C187.204 95.2335 187.747 95.7812 188.206 96.3988C188.434 96.709 188.597 97.0641 188.684 97.4416C188.771 97.8191 188.78 98.2109 188.71 98.592C188.635 97.881 188.791 97.1646 189.153 96.552C189.516 95.9395 190.066 95.4644 190.718 95.1992L186.593 94.7723Z" fill="black"/>
<g opacity="0.1">
<path opacity="0.1" d="M199.966 30.4395C199.683 29.6727 199.356 28.9232 198.987 28.1948C198.749 28.2413 198.514 28.3028 198.283 28.3788C198.697 29.0779 199.07 29.8012 199.4 30.5449C199.585 30.4959 199.773 30.4615 199.966 30.4395Z" fill="black"/>
<path opacity="0.1" d="M213.956 40.1124C214.021 40.1664 214.084 40.2277 214.146 40.2841C214.142 40.2682 214.136 40.2527 214.13 40.2375C214.075 40.1967 214.017 40.1549 213.956 40.1124Z" fill="black"/>
<path opacity="0.1" d="M191.541 41.1919C191.667 41.0913 191.782 40.9858 191.917 40.8877L191.879 39.7224L189.304 39.6954C188.886 40.0855 188.443 40.6448 188.689 41.1674L191.541 41.1919Z" fill="black"/>
<path opacity="0.1" d="M219.695 60.8077C219.237 61.6762 218.576 62.4906 217.672 62.8415C216.975 63.1113 216.208 63.0868 215.463 63.0524C212.922 62.9469 210.337 62.8316 207.935 61.9755C206.811 61.5731 205.736 61.0114 204.559 60.7636C203.183 60.4741 201.757 60.6385 200.361 60.8053L194.208 61.5413C192.392 61.7571 190.369 61.919 188.92 60.7857C188.09 60.138 187.555 59.1297 186.646 58.6097C186.263 58.3889 185.807 58.2466 185.559 57.8737C185.402 57.5968 185.319 57.2831 185.318 56.9636C185.298 56.706 185.286 56.4484 185.277 56.1908C185.25 56.9392 185.264 57.6886 185.318 58.4355C185.319 58.755 185.402 59.0687 185.559 59.3456C185.8 59.7161 186.263 59.8583 186.646 60.0816C187.555 60.6017 188.093 61.6099 188.92 62.2576C190.367 63.391 192.392 63.2389 194.208 63.0132L200.361 62.2772C201.757 62.1104 203.183 61.946 204.559 62.2355C205.726 62.4808 206.802 63.0451 207.935 63.4474C210.346 64.3036 212.922 64.4287 215.463 64.5244C216.208 64.5563 216.975 64.5832 217.672 64.3134C218.576 63.9626 219.237 63.1481 219.695 62.2797C220.582 60.5992 220.831 58.6931 220.736 56.7722C220.685 58.1789 220.329 59.5567 219.695 60.8077V60.8077Z" fill="black"/>
</g>
<path opacity="0.1" d="M199.896 32.0168L203.271 35.206C203.271 35.206 200.378 33.9794 199.896 32.0168Z" fill="black"/>
</g>
<defs>
<clipPath id="clip0">
<rect width="237" height="197" fill="white"/>
</clipPath>
</defs>
</svg>
