<svg width="237" height="197" viewBox="0 0 237 197" fill="none" xmlns="http://www.w3.org/2000/svg">
<g clip-path="url(#clip0)">
<path d="M223.891 63.0194C223.891 71.2189 221.942 77.9682 218.562 83.75C217.446 85.6544 216.179 87.467 214.774 89.1705C202.347 104.317 179.242 112.608 158.359 126.037C96.7175 165.675 90.0405 102.159 92.8245 63.0194C93.9475 47.2267 100.119 32.7605 109.924 21.6841C111.983 19.3546 114.208 17.1754 116.58 15.1633C127.711 5.71653 142.092 0 158.359 0C186.267 0 210.1 16.7743 219.549 40.4121C222.422 47.6053 223.895 55.2774 223.891 63.0194Z" fill="#FFB201"/>
<path d="M172.321 14.2028L109.924 21.6841C111.983 19.3546 114.207 17.1754 116.58 15.1633L172.321 14.2028Z" fill="white"/>
<path d="M218.562 83.75C217.447 85.6544 216.18 87.467 214.775 89.1704L161.326 82.7638L218.562 83.75Z" fill="white"/>
<path d="M221.73 46.9119L131.146 35.2037L219.55 40.412C220.399 42.536 221.127 44.7061 221.73 46.9119Z" fill="white"/>
<path d="M98.9695 16.7864C98.9695 16.9473 98.9648 17.1058 98.9507 17.262C98.8799 18.2302 98.5932 19.1704 98.1116 20.0142C97.63 20.858 96.9656 21.5841 96.1668 22.1397C95.368 22.6953 94.4549 23.0663 93.494 23.2258C92.5331 23.3852 91.5486 23.3291 90.6122 23.0614C89.6759 22.7938 88.8112 22.3214 88.0812 21.6786C87.3512 21.0359 86.7743 20.239 86.3924 19.3459C86.0105 18.4529 85.8334 17.4862 85.8738 16.5163C85.9143 15.5464 86.1713 14.5977 86.6262 13.7393C86.767 13.4703 86.9281 13.2123 87.1081 12.9676C87.8915 11.8848 88.9892 11.0676 90.2533 10.626C91.5174 10.1844 92.8869 10.1397 94.1772 10.498C95.4676 10.8563 96.6166 11.6004 97.4693 12.6298C98.322 13.6592 98.8375 14.9244 98.946 16.2548C98.9624 16.4297 98.9695 16.6069 98.9695 16.7864Z" fill="#6C63FF"/>
<path d="M98.9695 16.7864C98.9695 16.9473 98.9648 17.1058 98.9508 17.262L89.1436 16.087L98.9461 16.2548C98.9625 16.4297 98.9695 16.6069 98.9695 16.7864Z" fill="#D0CDE1"/>
<path d="M96.6294 20.076L87.5568 21.1647C87.2992 20.8786 87.0675 20.5705 86.8643 20.2438L96.6294 20.076Z" fill="#D0CDE1"/>
<path d="M94.0563 12.8488L86.626 13.7393C86.7668 13.4703 86.9279 13.2124 87.1079 12.9677L94.0563 12.8488Z" fill="#D0CDE1"/>
<path d="M188.745 134.317C188.669 134.459 188.59 134.597 188.504 134.728C187.986 135.55 187.291 136.247 186.468 136.767C185.646 137.288 184.718 137.619 183.751 137.736C182.784 137.854 181.803 137.755 180.879 137.447C179.955 137.139 179.112 136.63 178.411 135.956C177.709 135.282 177.168 134.461 176.825 133.552C176.483 132.643 176.348 131.67 176.431 130.703C176.514 129.735 176.812 128.799 177.304 127.961C177.796 127.123 178.469 126.405 179.275 125.859C179.526 125.688 179.789 125.535 180.064 125.403C181.265 124.812 182.619 124.603 183.943 124.804C185.268 125.004 186.498 125.604 187.47 126.524C188.441 127.443 189.106 128.637 189.375 129.945C189.644 131.252 189.504 132.611 188.974 133.837C188.906 133.999 188.829 134.158 188.745 134.317Z" fill="#6C63FF"/>
<path d="M188.744 134.317C188.668 134.459 188.59 134.597 188.504 134.728L180.394 129.109L188.973 133.837C188.906 133.999 188.828 134.158 188.744 134.317Z" fill="#D0CDE1"/>
<path d="M185.13 136.13L176.604 132.853C176.511 132.48 176.452 132.1 176.426 131.716L185.13 136.13Z" fill="#D0CDE1"/>
<path d="M186.257 128.544L179.274 125.859C179.525 125.688 179.789 125.535 180.063 125.403L186.257 128.544Z" fill="#D0CDE1"/>
<path d="M235.139 21.7873C235.252 21.9025 235.36 22.0192 235.459 22.1408C236.087 22.8832 236.54 23.7558 236.787 24.6949C237.033 25.6341 237.066 26.6162 236.884 27.5697C236.701 28.5233 236.307 29.4242 235.731 30.2069C235.155 30.9896 234.411 31.6344 233.553 32.0943C232.695 32.5542 231.745 32.8176 230.772 32.8654C229.799 32.9132 228.828 32.7441 227.929 32.3704C227.03 31.9968 226.225 31.428 225.575 30.7055C224.924 29.983 224.444 29.125 224.168 28.1939C224.08 27.9034 224.015 27.6066 223.972 27.3062C223.774 25.986 223.988 24.6371 224.583 23.4415C225.179 22.2458 226.128 21.261 227.303 20.6197C228.478 19.9784 229.821 19.7116 231.153 19.8553C232.485 19.9989 233.74 20.5461 234.75 21.423C234.884 21.5368 235.014 21.6588 235.139 21.7873Z" fill="#6C63FF"/>
<path d="M235.14 21.7873C235.252 21.9025 235.36 22.0192 235.46 22.1408L227.615 28.1232L234.751 21.423C234.885 21.5368 235.014 21.6588 235.14 21.7873Z" fill="#D0CDE1"/>
<path d="M235.77 25.7701L230.037 32.862C229.653 32.8364 229.271 32.777 228.896 32.6845L235.77 25.7701Z" fill="#D0CDE1"/>
<path d="M228.864 22.3867L224.168 28.194C224.081 27.9034 224.015 27.6067 223.973 27.3062L228.864 22.3867Z" fill="#D0CDE1"/>
<path d="M112.245 142.086C112.245 142.086 126.62 142.683 126.62 146.265C126.62 149.846 110.448 146.265 110.448 146.265L112.245 142.086Z" fill="#A0616A"/>
<path d="M90.6826 197L63.7289 195.209L62.5309 180.884L56.5412 193.419L30.1865 189.837C30.7855 167.156 40.369 145.071 40.968 142.086C41.567 139.102 42.9985 126.77 42.9985 126.77C45.616 121.237 59.3324 120.718 70.084 121.219C74.5403 121.422 78.4935 121.804 80.9313 122.079C82.5425 122.258 83.4949 122.389 83.4949 122.389C87.7895 126.8 90.5568 132.811 92.2579 139.526C98.3913 163.718 90.6826 197 90.6826 197Z" fill="#2F2E41"/>
<path d="M60.734 58.5224C69.0041 58.5224 75.7083 51.8415 75.7083 43.6002C75.7083 35.3589 69.0041 28.678 60.734 28.678C52.464 28.678 45.7598 35.3589 45.7598 43.6002C45.7598 51.8415 52.464 58.5224 60.734 58.5224Z" fill="#A0616A"/>
<path d="M50.5517 47.1816C50.5517 47.1816 46.3589 65.6851 39.7702 71.057C33.1815 76.429 65.5259 71.057 65.5259 71.057C65.5259 71.057 58.3383 59.1193 63.729 53.7473C69.1197 48.3753 50.5517 47.1816 50.5517 47.1816Z" fill="#A0616A"/>
<path d="M81.0994 123.583L71.1624 124.681L43.3642 127.761C43.3642 127.761 43.2325 127.409 42.9989 126.77C40.9804 121.285 31.2591 94.5921 30.1869 86.5759C28.9889 77.6227 41.5673 66.8787 41.5673 66.8787C41.5673 66.8787 53.5468 64.4911 57.1406 64.4911C60.7344 64.4911 75.1097 69.8631 75.1097 69.8631L80.4705 117.918L80.9317 122.079L81.0994 123.583Z" fill="#D0CDE1"/>
<path opacity="0.15" d="M92.2577 139.526L72.1143 127.761C72.1143 127.761 71.7608 126.615 71.1618 124.681C70.8624 123.714 70.4971 122.544 70.0837 121.219C67.7597 113.782 63.8604 101.51 60.7338 92.5449C55.9421 78.8165 79.3019 117.017 79.3019 117.017L80.4699 117.919L80.9311 122.079C82.5423 122.258 83.4947 122.389 83.4947 122.389C87.7893 126.8 90.5566 132.811 92.2577 139.526Z" fill="black"/>
<path d="M65.5257 71.0569C65.5257 71.0569 59.536 78.8165 64.3278 92.5449C69.1195 106.273 75.7082 127.761 75.7082 127.761L110.449 148.055L115.24 142.086L82.8958 117.017C82.8958 117.017 81.6979 71.6538 75.7082 69.8632C69.7185 68.0725 65.5257 71.0569 65.5257 71.0569Z" fill="#D0CDE1"/>
<path d="M35.877 123.285C35.877 123.285 44.2625 140.594 47.8564 138.804C51.4502 137.013 38.8718 119.106 38.8718 119.106L35.877 123.285Z" fill="#A0616A"/>
<path d="M34.9782 75.8322L3.23276 102.095C3.23276 102.095 -8.74665 110.452 13.4153 116.42C35.5772 122.389 37.3741 125.971 37.3741 125.971C37.3741 125.971 39.77 118.211 42.7648 119.405L17.0091 106.87L37.9731 94.3356L34.9782 75.8322Z" fill="#D0CDE1"/>
<path d="M22.2193 55.8478C23.8854 55.0255 27.5646 53.3661 30.6985 51.3668C30.4787 44.8628 31.2824 38.9586 33.6351 35.829C34.9557 32.841 37.7288 29.8494 39.9007 27.4936C45.2343 21.7082 57.0282 18.4788 59.1199 21.3694C74.941 21.6807 76.6066 34.0388 76.6066 34.0388C76.5243 39.2079 71.1331 39.3715 66.4105 39.1831C66.8334 42.712 65.7064 46.3787 62.4428 48.0048C56.2019 51.1144 54.3297 55.1569 57.4501 57.9555C60.5706 60.7542 66.1874 68.2172 58.6983 70.083C51.2092 71.9487 50.2731 75.6802 52.4574 77.235C54.6418 78.7898 47.4647 74.4364 47.4647 74.4364C47.4647 74.4364 46.2165 81.8994 39.6635 80.0337C39.0763 79.8665 38.4893 79.438 37.9123 78.7973C36.1425 80.7351 34.5637 81.8809 33.3737 81.8872C26.5587 81.9232 27.3759 74.4012 27.3759 74.4012C27.3759 74.4012 19.2868 76.6651 21.8109 75.7547C24.335 74.8444 24.4431 70.9996 17.7361 67.1907C11.0292 63.3819 18.4572 57.7043 22.2193 55.8478Z" fill="#2F2E41"/>
<path d="M105.836 75.3456L105.727 75.3314L105.992 76.3354C106.243 77.736 106.607 79.1143 107.08 80.4565L114.854 109.904C115.102 110.843 115.62 111.691 116.344 112.341C117.068 112.992 117.968 113.418 118.931 113.566L134.784 116.01C135.809 116.168 136.858 116.005 137.786 115.544C138.714 115.082 139.476 114.345 139.965 113.433L155.03 85.3926C155.501 84.6157 155.931 83.8151 156.319 82.994L156.83 82.0419L156.751 82.0314C158.348 78.2668 159.051 74.1855 158.805 70.1056C158.559 66.0258 157.371 62.0576 155.333 58.5105C153.295 54.9634 150.463 51.9331 147.057 49.6559C143.651 47.3788 139.764 45.9162 135.697 45.3822C131.631 44.8482 127.496 45.2573 123.614 46.5775C119.733 47.8978 116.21 50.0935 113.319 52.9935C110.429 55.8935 108.25 59.4195 106.952 63.2967C105.654 67.1738 105.272 71.2972 105.836 75.3456H105.836Z" fill="#E2E2E2"/>
<path d="M135.757 117.934C135.478 117.934 135.199 117.913 134.923 117.87L118.353 115.315C117.3 115.153 116.318 114.688 115.527 113.978C114.736 113.267 114.17 112.342 113.9 111.316L105.774 80.5355C105.278 79.1264 104.896 77.6797 104.633 76.2094L104.428 74.8628C103.875 70.561 104.333 66.1899 105.766 62.0948C107.199 57.9996 109.567 54.2924 112.685 51.2658C115.802 48.2393 119.582 45.9762 123.728 44.6552C127.873 43.3343 132.27 42.9916 136.571 43.6543L136.499 44.1151C132.245 43.4618 127.896 43.8083 123.8 45.1269C119.705 46.4456 115.975 48.6999 112.908 51.7101C109.841 54.7202 107.523 58.4028 106.138 62.4642C104.754 66.5256 104.34 70.8533 104.932 75.102L105.09 76.1092C105.351 77.5671 105.729 79.0016 106.221 80.3989L114.352 111.197C114.6 112.136 115.117 112.982 115.84 113.632C116.564 114.281 117.462 114.706 118.424 114.854L134.994 117.409C136.018 117.566 137.065 117.403 137.992 116.942C138.918 116.481 139.679 115.746 140.168 114.836L140.581 115.056C140.113 115.925 139.417 116.652 138.567 117.159C137.718 117.665 136.747 117.933 135.757 117.934Z" fill="white"/>
<path d="M139.96 82.0389L129.878 109.472L130.446 109.68L140.529 82.2463L139.96 82.0389Z" fill="white"/>
<path d="M123.498 79.5005L122.894 79.527L124.18 108.714L124.785 108.688L123.498 79.5005Z" fill="white"/>
<path d="M134.356 131.888L113.123 128.615C112.966 128.59 112.824 128.503 112.73 128.374C112.636 128.246 112.597 128.085 112.621 127.927C112.646 127.77 112.732 127.629 112.861 127.534C112.989 127.44 113.15 127.4 113.309 127.423L134.541 130.696C134.62 130.708 134.696 130.735 134.764 130.776C134.833 130.817 134.892 130.871 134.94 130.935C134.987 130.999 135.021 131.072 135.04 131.149C135.059 131.226 135.063 131.307 135.05 131.385C135.038 131.464 135.011 131.539 134.969 131.607C134.928 131.675 134.873 131.734 134.808 131.781C134.744 131.827 134.671 131.861 134.593 131.879C134.516 131.898 134.435 131.901 134.356 131.888Z" fill="#3F3D56"/>
<path d="M134.9 127.395L113.668 124.122C113.589 124.11 113.513 124.083 113.444 124.042C113.376 124.001 113.317 123.947 113.269 123.883C113.222 123.819 113.188 123.746 113.169 123.669C113.15 123.592 113.146 123.512 113.158 123.433C113.171 123.355 113.198 123.279 113.24 123.211C113.281 123.143 113.336 123.084 113.401 123.038C113.465 122.991 113.538 122.957 113.616 122.939C113.693 122.92 113.774 122.917 113.853 122.93L135.085 126.203C135.164 126.215 135.24 126.242 135.309 126.283C135.377 126.324 135.436 126.378 135.484 126.442C135.531 126.506 135.565 126.579 135.584 126.656C135.603 126.733 135.607 126.813 135.595 126.892C135.582 126.971 135.555 127.046 135.513 127.114C135.472 127.182 135.417 127.241 135.353 127.287C135.288 127.334 135.215 127.368 135.137 127.386C135.06 127.405 134.979 127.408 134.9 127.395Z" fill="#3F3D56"/>
<path d="M135.445 122.902L114.212 119.629C114.054 119.603 113.913 119.517 113.819 119.388C113.725 119.259 113.686 119.098 113.71 118.941C113.735 118.783 113.821 118.642 113.949 118.548C114.078 118.453 114.239 118.413 114.397 118.437L135.63 121.71C135.788 121.735 135.93 121.822 136.024 121.951C136.118 122.079 136.157 122.24 136.132 122.398C136.108 122.555 136.022 122.697 135.893 122.791C135.764 122.886 135.603 122.925 135.445 122.902H135.445Z" fill="#3F3D56"/>
<path d="M123.08 134.503C127.292 135.152 131.069 133.34 131.517 130.454L116.265 128.103C115.817 130.988 118.868 133.854 123.08 134.503Z" fill="#3F3D56"/>
<path d="M130.712 76.2592C129.806 76.1197 129.056 75.4061 128.645 74.9278C128.51 74.771 128.379 74.6083 128.248 74.4453C127.769 73.8517 127.317 73.2911 126.688 72.9987C125.299 72.3529 123.663 73.2549 122.246 74.2227L121.903 73.7253C123.461 72.661 125.278 71.6778 126.944 72.452C127.701 72.8038 128.219 73.4463 128.719 74.0674C128.847 74.2257 128.974 74.3834 129.105 74.5356C129.532 75.0328 130.384 75.8385 131.297 75.6527C131.682 75.5409 132.04 75.3521 132.349 75.0978C132.585 74.9227 132.833 74.7663 133.093 74.6298C133.621 74.3779 134.211 74.287 134.79 74.3685C135.369 74.4501 135.91 74.7004 136.347 75.0881C136.502 75.235 136.65 75.3903 136.788 75.5534C137.061 75.8626 137.318 76.1545 137.652 76.2606C138.147 76.4182 138.67 76.1365 139.224 75.8388C139.795 75.5316 140.386 75.2138 141.055 75.2922C141.077 75.2948 141.099 75.2977 141.121 75.3011C142.313 75.4848 142.863 76.7986 143.173 77.7792L142.596 77.9608C142.174 76.6279 141.659 75.9651 140.985 75.8913C140.505 75.835 140.022 76.0947 139.511 76.3695C138.871 76.7141 138.208 77.0704 137.468 76.8353C136.974 76.6784 136.648 76.3087 136.333 75.9512C136.209 75.8049 136.077 75.6653 135.938 75.5332C135.591 75.2298 135.162 75.0339 134.704 74.9695C134.247 74.905 133.78 74.9748 133.362 75.1703C133.13 75.293 132.908 75.4334 132.698 75.5902C132.323 75.8954 131.887 76.1181 131.419 76.2435C131.186 76.2908 130.946 76.2961 130.712 76.2592Z" fill="white"/>
</g>
<defs>
<clipPath id="clip0">
<rect width="237" height="197" fill="white"/>
</clipPath>
</defs>
</svg>
